<?xml version="1.0" encoding="utf-8"?>
<!-- Generator: Adobe Illustrator 16.0.0, SVG Export Plug-In . SVG Version: 6.00 Build 0)  -->
<!DOCTYPE svg PUBLIC "-//W3C//DTD SVG 1.1//EN" "http://www.w3.org/Graphics/SVG/1.1/DTD/svg11.dtd">
<svg version="1.1" id="Layer_1" xmlns="http://www.w3.org/2000/svg" xmlns:xlink="http://www.w3.org/1999/xlink" x="0px" y="0px"
	 width="800px" height="335px" viewBox="0 69.169 800 335" enable-background="new 0 69.169 800 335" xml:space="preserve">
<g>
	<g id="rybIyYKI-Q">
		<polygon id="rkGLJFKUZQ" points="340.259,155.488 368.352,155.488 371.363,141.699 343.363,141.699 346.301,129.088 
			374.396,129.088 377.529,114.707 331.958,114.707 316.659,182.269 316.611,182.48 362.183,182.48 365.318,168.105 
			337.325,168.105 		"/>
		<path id="HyXIJKt8bm" d="M318.604,121.213c-3.475-4.317-9.816-6.506-18.845-6.506h-25.302l-15.303,67.562l-0.045,0.212h17.568
			l5.987-25.722h10.835c14.364,0,24.675-7.956,27.581-21.284C321.802,132.189,322.436,125.965,318.604,121.213z M303.654,135.693
			c-1.418,6.493-6.936,7.856-11.318,7.856h-7.439l3.778-15.635h6.769c3.792,0,6.24,0.755,7.488,2.307
			C303.949,131.481,304.183,133.267,303.654,135.693z"/>
		<polygon id="BJN8JKtIb7" points="267.562,114.992 267.795,114.707 248.899,114.707 232.995,135.248 227.677,114.838 
			227.645,114.707 208.067,114.707 219.219,147.197 191.005,182.201 190.781,182.48 210.816,182.48 226.729,160.188 
			233.258,182.355 233.296,182.48 253.635,182.48 240.947,147.456 		"/>
		<polygon id="rkSIkKFI-Q" points="163.604,155.488 191.699,155.488 194.71,141.699 166.71,141.699 169.645,129.088 
			197.737,129.088 200.874,114.707 155.306,114.707 140.003,182.269 139.955,182.48 185.529,182.48 188.666,168.105 
			160.669,168.105 		"/>
		<polygon id="ry8IyKFIb7" points="495.175,114.707 441.28,114.707 438.145,129.088 456.97,129.088 444.803,182.269 444.755,182.48 
			462.138,182.48 474.349,129.088 492.045,129.088 		"/>
		<path id="Hkw8yYKU-m" d="M579.206,116.649l-0.144-0.061c-7.004-3.001-12.125-3.833-18.719-3.833
			c-13.275,0-28.322,7.344-31.386,21.382c-2.87,13.155,4.093,17.338,11.28,19.689c1.338,0.436,2.685,0.813,3.986,1.175
			c5.758,1.6,10.305,2.867,9.229,7.779c-1.418,6.518-7.712,7.27-12.323,7.27c-4.679,0-14.364-1.699-17.914-2.915l-0.176-0.061
			l-3.747,13.484l0.15,0.058c6.602,2.49,13.366,3.812,19.569,3.812c7.865,0,14.944-1.824,20.461-5.276
			c6.416-4.017,10.541-10.022,12.246-17.854c1.672-7.657,0.957-16.073-16.99-20.474c-4.371-1.008-8.729-2.566-7.862-6.518
			c1.034-4.758,5.271-7.024,12.589-7.171c7.613-0.157,16.541,2.477,16.541,2.477l3.148-12.81L579.206,116.649z"/>
		<polygon id="rkOLyttUb7" points="592.208,114.707 576.909,182.269 576.867,182.48 622.436,182.48 625.564,168.105 
			597.574,168.105 600.509,155.488 628.604,155.488 631.619,141.699 603.616,141.699 606.557,129.088 634.646,129.088 
			637.741,114.915 637.785,114.707 		"/>
		<polygon id="S1tIkYKL-m" points="523.824,114.707 506.445,114.707 491.14,182.269 491.088,182.48 508.471,182.48 523.776,114.915 
					"/>
		<path id="Sk98yFY8Wm" d="M413.622,114.707h-25.865l-15.303,67.562l-0.048,0.212h0.461c4.521-6.183,10.922-11.262,18.496-14.062
			c0.679-0.253,1.358-0.454,2.041-0.659l2.561-11.001h2.419c3.581,0,4.534,2.602,5.683,6.886l0.733,2.611
			c11.02,0.509,19.827,6.717,23.523,16.221h0.634l-6.928-21.273c-1.229-3.808-3.085-8.316-6.635-9.728
			c9.4-0.558,17.502-7.892,19.32-17.559c1.248-5.703,0.604-10.176-1.914-13.296C429.597,116.64,423.325,114.707,413.622,114.707z
			 M416.947,135.693c-1.414,6.493-6.937,7.856-11.315,7.856h-7.438l3.78-15.635h6.767c3.792,0,6.239,0.755,7.491,2.307
			C417.245,131.481,417.48,133.267,416.947,135.693z"/>
	</g>
	<g id="rJsIkFY8bm">
		<path id="H128kKtIZ7" fill="#F37024" d="M76.576,198.311h62.857c28.298,0,47.639,8.832,40.416,44.105
			c-4.87,23.712-21.76,42.476-50.422,42.476H104.06l-8.678,40.598H49.427L76.576,198.311z M110.496,254.366h7.344
			c13.05,0,18.192-6.24,19.812-14.151c1.875-9.2-5.018-11.396-11.45-11.396h-10.298L110.496,254.366z"/>
		<polygon id="HypI1YFUZX" fill="#F37024" points="199.162,198.311 245.107,198.311 235.869,241.677 269.687,241.677 
			278.94,198.311 324.883,198.311 297.744,325.488 251.789,325.488 261.268,281.031 227.443,281.031 217.971,325.488 
			172.02,325.488 		"/>
		<path id="H1CIkYK8-X" fill="#F37024" d="M445.127,291.322c9.362,1.826,19.254,2.941,27.513,2.941
			c16.55,0,22.438-1.84,23.498-6.998c0.979-4.785-0.714-6.439-5.527-7.174l-18.563-2.742c-22.617-3.512-26.521-23.899-23.74-37.501
			c7.414-36.215,35.372-45.209,68.073-45.209c17.273,0,31.075,1.738,41.539,3.575l-8.188,33.801
			c-8.621-1.829-23.751-3.558-32.927-3.558c-16.544,0-19.578,4.048-20.438,8.269c-0.566,2.759,0.682,4.771,5.952,5.879l20.349,3.858
			c18.771,3.485,25.604,17.653,21.741,36.589c-6.25,30.502-27.651,46.117-63.674,46.117c-17.821,0-34.025-1.654-46.842-3.68
			L445.127,291.322z"/>
		<polygon id="S1kgLJFt8ZQ" fill="#F37024" points="573.722,198.311 619.667,198.311 592.509,325.488 546.572,325.488 		"/>
		<path id="HJggLkFYIbm" fill="#F37024" d="M699.078,194.64c44.471,0,61.949,30.5,54.423,67.271
			c-7.523,36.756-37.507,67.258-81.972,67.258c-44.486,0-61.935-30.5-54.422-67.258C624.644,225.14,654.592,194.64,699.078,194.64
			 M691.393,232.125c-16,0-23.521,13.427-26.865,29.789c-3.35,16.352-1.322,29.764,14.665,29.764
			c16.007,0,23.527-13.408,26.862-29.764C709.424,245.552,707.386,232.125,691.393,232.125"/>
		<g id="HJ-e8JKFIbQ_HyvkstLWm">
			<g id="HJ-e8JKFIbQ_SyF1jYU-7">
				<path id="HJ-e8JKFIbQ" fill="#F37024" d="M377.952,202.374c1.941,9.856,12.714,14.385,24.048,10.122
					c11.348-4.263,18.957-15.731,17.005-25.597c-1.938-9.859-12.704-14.391-24.042-10.115
					C383.626,181.06,376.007,192.519,377.952,202.374z"/>
			</g>
		</g>
		<g id="HkGeUJFYIbQ_S1JKtKLW7">
			<g id="HkGeUJFYIbQ_ry1HFFU-7">
				<path id="HkGeUJFYIbQ" fill="#F37024" d="M479.792,182.87c0,0-75.14,47.261-117.408,43.952
					c-17.033-1.334-23.865-15.434-26.979-30.691c-10.582,38.528,3.623,60.336,10.198,73.798
					c-17.695,44.537-5.439,86.58,4.489,106.855C360.381,347.126,359.517,272.742,479.792,182.87"/>
			</g>
		</g>
	</g>
</g>
</svg>
